<?xml version="1.0" encoding="UTF-8"?>
<svg width="185px" height="24px" viewBox="0 0 185 24" version="1.1" xmlns="http://www.w3.org/2000/svg" xmlns:xlink="http://www.w3.org/1999/xlink">
    <!-- Generator: Sketch 44.1 (41455) - http://www.bohemiancoding.com/sketch -->
    <title>academia.logotype.white</title>
    <desc>Created with Sketch.</desc>
    <defs></defs>
    <g id="Page-1" stroke="none" stroke-width="1" fill="none" fill-rule="evenodd">
        <g id="academia.logotype.white" fill="#FFFFFF">
            <path d="M143.799,19.614 L141.816,3.871 C141.816,2.176 142.423,1.632 144.503,1.535 L144.503,0.32 L136.632,0.32 C136.6,0.672 136.535,0.991 136.44,1.28 L136.088,2.303 L131.576,15.454 L126.777,2.303 C126.521,1.632 126.296,1.055 126.264,0.32 L118.233,0.32 L118.233,1.535 C120.313,1.632 120.952,2.176 120.952,3.871 L118.937,19.614 C118.777,21.054 118.105,21.47 116.281,21.566 L116.281,22.782 L123.897,22.782 L123.897,21.566 C123.39,21.531 122.973,21.484 122.611,21.421 C121.81,21.145 120.977,20.407 121.226,18.479 C121.546,15.997 122.39,9.257 122.728,6.545 L128.728,22.782 L131.235,22.782 L136.714,6.759 L138.264,18.718 C138.264,18.846 138.264,19.006 138.295,19.166 L138.295,19.518 C138.295,21.054 137.528,21.406 135.256,21.566 L135.256,22.782 L146.487,22.782 L146.487,21.566 C144.695,21.47 144.023,21.182 143.799,19.614 L143.799,19.614 Z M107.629,21.406 L106.061,21.406 C104.173,21.406 103.309,20.926 103.309,19.23 L103.309,11.999 L106.925,11.999 C108.365,11.999 108.812,12.831 109.1,14.91 L110.348,14.91 L110.348,7.455 L109.1,7.455 C108.812,9.535 108.365,10.399 106.925,10.399 L103.309,10.399 L103.309,1.696 L107.245,1.696 C109.932,1.696 110.892,2.751 112.461,6.303 L113.549,6.303 L113.388,0.32 L95.437,0.32 L95.437,1.535 C97.613,1.791 97.87,2.048 97.87,3.743 L97.87,19.358 C97.87,21.054 97.613,21.31 95.437,21.566 L95.437,22.782 L113.644,22.782 L114.636,16.094 L113.388,16.094 C111.18,20.062 110.316,21.406 107.629,21.406 L107.629,21.406 Z M174.494,13.712 L171.186,5.398 C170.643,6.816 169.231,10.503 168.001,13.712 L174.494,13.712 Z M184.739,21.566 L184.739,22.782 L174.211,22.782 L174.211,21.566 C175.971,21.534 176.835,21.15 176.835,20.126 C176.835,19.774 176.707,19.358 176.547,18.878 L175.359,15.895 L167.164,15.895 C166.479,17.682 165.965,19.018 165.894,19.198 C165.125,21.142 166.182,21.379 167.992,21.565 C167.996,21.566 168,21.566 168.004,21.566 L168.004,21.567 L168.004,21.567 L168.004,21.568 L168.004,22.782 L168.003,22.782 L161.284,22.782 L161.284,21.566 C162.148,21.406 162.852,21.246 163.14,20.382 L169.988,2.719 L168.963,0.192 L168.964,0.192 L174.755,0.192 L182.851,20.382 C182.995,20.782 183.243,21.038 183.567,21.214 C183.89,21.39 184.291,21.486 184.739,21.566 L184.739,21.566 Z M148.718,1.535 C150.894,1.791 151.15,2.048 151.15,3.743 L151.15,19.358 C151.15,21.054 150.894,21.31 148.718,21.566 L148.718,22.782 L159.053,22.782 L159.053,21.566 C156.877,21.31 156.589,21.054 156.589,19.358 L156.589,3.743 C156.589,2.048 156.877,1.791 159.053,1.535 L159.053,0.32 L148.718,0.32 L148.718,1.535 Z M88.137,11.839 C88.137,5.951 85.513,1.696 80.233,1.696 L78.921,1.696 L78.921,19.134 C78.921,21.022 79.721,21.406 81.289,21.406 L81.737,21.406 C85.545,21.406 88.137,17.759 88.137,11.839 L88.137,11.839 Z M81.865,22.782 L71.05,22.782 L71.05,21.566 C73.226,21.31 73.482,21.054 73.482,19.358 L73.482,3.743 C73.482,2.048 73.226,1.791 71.05,1.535 L71.05,0.32 L81.193,0.32 C89.801,0.32 93.864,5.151 93.864,11.199 C93.864,18.494 88.936,22.782 81.865,22.782 Z M58.574,13.712 L55.266,5.398 C54.723,6.816 53.311,10.503 52.081,13.712 L58.574,13.712 Z M68.818,21.566 L68.818,22.782 L58.291,22.782 L58.291,21.566 C60.051,21.534 60.915,21.15 60.915,20.126 C60.915,19.774 60.787,19.358 60.627,18.878 L59.439,15.895 L51.244,15.895 C50.558,17.682 50.045,19.018 49.974,19.198 C49.205,21.142 50.262,21.379 52.072,21.565 C52.076,21.566 52.079,21.566 52.083,21.566 L52.083,21.567 L52.084,21.567 L52.083,21.569 L52.083,22.782 L45.364,22.782 L45.364,21.566 C46.228,21.406 46.932,21.246 47.22,20.382 L54.067,2.719 L53.043,0.192 L58.835,0.192 L66.931,20.382 C67.219,21.182 67.922,21.406 68.818,21.566 L68.818,21.566 Z M13.21,13.712 L9.901,5.398 C9.358,6.816 7.946,10.503 6.716,13.712 L13.21,13.712 Z M23.454,21.566 L23.454,22.782 L12.927,22.782 L12.927,21.566 C14.687,21.534 15.551,21.15 15.551,20.126 C15.551,19.774 15.423,19.358 15.263,18.878 L14.075,15.895 L5.88,15.895 C5.194,17.682 4.681,19.018 4.61,19.198 C3.841,21.142 4.897,21.379 6.708,21.565 C6.712,21.566 6.715,21.566 6.719,21.566 L6.719,21.567 L6.72,21.567 L6.719,21.569 L6.719,22.782 L0,22.782 L0,21.566 C0.864,21.406 1.568,21.246 1.855,20.382 L8.703,2.719 L7.679,0.192 L13.471,0.192 L21.566,20.382 C21.854,21.182 22.558,21.406 23.454,21.566 L23.454,21.566 Z M41.661,14.91 L43.133,14.91 L42.62,21.086 C40.733,22.366 38.077,23.102 35.005,23.102 C27.933,23.102 23.454,18.782 23.454,12.127 C23.454,4.703 28.702,0 35.133,0 C37.981,0 40.412,0.703 42.237,1.887 L42.301,7.231 L40.925,7.231 C40.157,3.519 38.333,1.471 35.293,1.471 C31.069,1.471 29.214,5.823 29.214,11.231 C29.214,17.086 31.485,21.566 35.581,21.566 C38.397,21.566 40.476,19.646 41.661,14.91 L41.661,14.91 Z" id="Academia.Logo"></path>
        </g>
    </g>
</svg>